<svg width="800" height="850" viewBox="0 0 800 850" fill="none" xmlns="http://www.w3.org/2000/svg">
<g clip-path="url(#clip0_46_21)">
<g filter="url(#filter0_d_46_21)">
<path d="M400 0C218.067 0 70.5811 147.509 70.5811 329.419C70.5811 511.328 329.492 800 400 800C470.483 800 729.419 511.328 729.419 329.419C729.419 147.509 581.934 0 400 0ZM400 480.616C316.479 480.616 248.803 412.916 248.803 329.419C248.803 245.898 316.479 178.222 400 178.222C483.497 178.222 551.197 245.898 551.197 329.419C551.197 412.916 483.497 480.616 400 480.616Z" fill="white"/>
</g>
<circle cx="400" cy="325" r="273" fill="#EA4236"/>
<path d="M301.386 455.916L364.692 379.151L393.65 416.087L337.835 487.067C316.459 514.229 276.904 485.605 301.386 455.916ZM375.319 281.101C381.348 261.43 378.577 244.622 355.922 219.653L300.564 153.058C292.707 143.831 274.194 157.382 281.928 168.557L326.203 223.093C334.576 233.264 319.016 246.723 310.368 236.248L264.571 179.854C256.045 170.08 238.415 182.99 247.336 194.166C260.247 209.695 280.223 235.06 293.134 250.59C302.086 259.695 288.475 273.184 279.644 261.826L234.182 205.798C227.513 198.551 216.612 203.057 213.719 211.522C210.613 220.566 218.256 227.174 223.463 233.873L274.194 299.402C289.936 317.642 307.537 328.451 327.999 322.331C331.136 321.387 334.972 319.469 339.083 316.941L475.378 492.883C482.717 502.353 496.876 503.358 506.072 495.715L508.173 493.979C518.527 485.362 520.201 469.619 511.34 459.449L367.006 293.616C371.208 288.927 374.284 284.481 375.319 281.101ZM413.899 319.469L436.341 292.246C407.474 220.688 514.446 125.318 566.303 169.166C629.305 222.484 535.67 350.985 469.867 319.225L443.284 352.994L413.899 319.469Z" fill="white"/>
</g>
<defs>
<filter id="filter0_d_46_21" x="50.5811" y="-5" width="698.837" height="840" filterUnits="userSpaceOnUse" color-interpolation-filters="sRGB">
<feFlood flood-opacity="0" result="BackgroundImageFix"/>
<feColorMatrix in="SourceAlpha" type="matrix" values="0 0 0 0 0 0 0 0 0 0 0 0 0 0 0 0 0 0 127 0" result="hardAlpha"/>
<feOffset dy="15"/>
<feGaussianBlur stdDeviation="10"/>
<feComposite in2="hardAlpha" operator="out"/>
<feColorMatrix type="matrix" values="0 0 0 0 0 0 0 0 0 0 0 0 0 0 0 0 0 0 0.25 0"/>
<feBlend mode="normal" in2="BackgroundImageFix" result="effect1_dropShadow_46_21"/>
<feBlend mode="normal" in="SourceGraphic" in2="effect1_dropShadow_46_21" result="shape"/>
</filter>
<clipPath id="clip0_46_21">
<rect width="800" height="850" fill="white"/>
</clipPath>
</defs>
</svg>
