<svg width="800" height="850" viewBox="0 0 800 850" fill="none" xmlns="http://www.w3.org/2000/svg">
<g clip-path="url(#clip0_46_21)">
<g filter="url(#filter0_d_46_21)">
<path d="M400 0C218.067 0 70.5811 147.509 70.5811 329.419C70.5811 511.328 329.492 800 400 800C470.483 800 729.419 511.328 729.419 329.419C729.419 147.509 581.934 0 400 0ZM400 480.616C316.479 480.616 248.803 412.916 248.803 329.419C248.803 245.898 316.479 178.222 400 178.222C483.497 178.222 551.197 245.898 551.197 329.419C551.197 412.916 483.497 480.616 400 480.616Z" fill="white"/>
</g>
<circle cx="400" cy="325" r="273" fill="#1B73E8"/>
<path d="M279.693 470V179.091H332.392V302.244H467.193V179.091H520.034V470H467.193V346.42H332.392V470H279.693Z" fill="white"/>
</g>
<defs>
<filter id="filter0_d_46_21" x="50.5811" y="-5" width="698.837" height="840" filterUnits="userSpaceOnUse" color-interpolation-filters="sRGB">
<feFlood flood-opacity="0" result="BackgroundImageFix"/>
<feColorMatrix in="SourceAlpha" type="matrix" values="0 0 0 0 0 0 0 0 0 0 0 0 0 0 0 0 0 0 127 0" result="hardAlpha"/>
<feOffset dy="15"/>
<feGaussianBlur stdDeviation="10"/>
<feComposite in2="hardAlpha" operator="out"/>
<feColorMatrix type="matrix" values="0 0 0 0 0 0 0 0 0 0 0 0 0 0 0 0 0 0 0.25 0"/>
<feBlend mode="normal" in2="BackgroundImageFix" result="effect1_dropShadow_46_21"/>
<feBlend mode="normal" in="SourceGraphic" in2="effect1_dropShadow_46_21" result="shape"/>
</filter>
<clipPath id="clip0_46_21">
<rect width="800" height="850" fill="white"/>
</clipPath>
</defs>
</svg>
